<svg xmlns="http://www.w3.org/2000/svg" xmlns:xlink="http://www.w3.org/1999/xlink" contentStyleType="text/css" data-diagram-type="CLASS" height="363px" preserveAspectRatio="none" style="width:522px;height:363px;background:#FFFFFF;" version="1.1" viewBox="0 0 522 363" width="522px" zoomAndPan="magnify"><defs/><g><!--class Libro_Details--><g class="entity" data-entity="Libro_Details" data-source-line="5" data-uid="ent0002" id="entity_Libro_Details"><rect fill="#FFFFFF" height="337.3438" rx="2.5" ry="2.5" style="stroke:#000000;stroke-width:1;" width="496.8896" x="12" y="12"/><ellipse cx="211.4785" cy="26" fill="#FFFFFF" rx="9" ry="9" style="stroke:#000000;stroke-width:1;"/><path d="M214.4473,31.6406 Q213.8691,31.9375 213.2285,32.0781 Q212.5879,32.2344 211.8848,32.2344 Q209.3848,32.2344 208.0566,30.5938 Q206.7441,28.9375 206.7441,25.8125 Q206.7441,22.6875 208.0566,21.0313 Q209.3848,19.375 211.8848,19.375 Q212.5879,19.375 213.2285,19.5313 Q213.8848,19.6875 214.4473,19.9844 L214.4473,22.7031 Q213.8223,22.125 213.2285,21.8594 Q212.6348,21.5781 212.0098,21.5781 Q210.666,21.5781 209.9785,22.6563 Q209.291,23.7188 209.291,25.8125 Q209.291,27.9063 209.9785,28.9844 Q210.666,30.0469 212.0098,30.0469 Q212.6348,30.0469 213.2285,29.7813 Q213.8223,29.5 214.4473,28.9219 L214.4473,31.6406 Z " fill="#000000"/><text fill="#000000" font-family="Verdana" font-size="14" lengthAdjust="spacing" textLength="90.4326" x="228.9785" y="30.8467">Libro_Details</text><line style="stroke:#000000;stroke-width:1;" x1="13" x2="507.8896" y1="40" y2="40"/><rect fill="none" height="6" style="stroke:#000000;stroke-width:1;" width="6" x="20" y="50.6484"/><text fill="#000000" font-family="Verdana" font-size="14" lengthAdjust="spacing" textLength="149.5703" x="30" y="56.9951">mGradevolezza: float</text><rect fill="none" height="6" style="stroke:#000000;stroke-width:1;" width="6" x="20" y="66.9453"/><text fill="#000000" font-family="Verdana" font-size="14" lengthAdjust="spacing" textLength="85.0254" x="30" y="73.292">mStile: float</text><rect fill="none" height="6" style="stroke:#000000;stroke-width:1;" width="6" x="20" y="83.2422"/><text fill="#000000" font-family="Verdana" font-size="14" lengthAdjust="spacing" textLength="155.1279" x="30" y="89.5889">serialVersionUID: long</text><rect fill="none" height="6" style="stroke:#000000;stroke-width:1;" width="6" x="20" y="99.5391"/><text fill="#000000" font-family="Verdana" font-size="14" lengthAdjust="spacing" textLength="126.998" x="30" y="105.8857">mOriginalita: float</text><rect fill="none" height="6" style="stroke:#000000;stroke-width:1;" width="6" x="20" y="115.8359"/><text fill="#000000" font-family="Verdana" font-size="14" lengthAdjust="spacing" textLength="215.6396" x="30" y="122.1826">valutazioni: List&lt;Valutazione&gt;</text><rect fill="none" height="6" style="stroke:#000000;stroke-width:1;" width="6" x="20" y="132.1328"/><text fill="#000000" font-family="Verdana" font-size="14" lengthAdjust="spacing" textLength="96.1543" x="30" y="138.4795">mFinale: float</text><rect fill="none" height="6" style="stroke:#000000;stroke-width:1;" width="6" x="20" y="148.4297"/><text fill="#000000" font-family="Verdana" font-size="14" lengthAdjust="spacing" textLength="127.374" x="30" y="154.7764">mContenuto: float</text><rect fill="none" height="6" style="stroke:#000000;stroke-width:1;" width="6" x="20" y="164.7266"/><text fill="#000000" font-family="Verdana" font-size="14" lengthAdjust="spacing" textLength="113.1689" x="30" y="171.0732">mEdizione: float</text><rect fill="none" height="6" style="stroke:#000000;stroke-width:1;" width="6" x="20" y="181.0234"/><text fill="#000000" font-family="Verdana" font-size="14" lengthAdjust="spacing" textLength="289.8574" x="30" y="187.3701">consigli: Hashtable&lt;String, List&lt;Libro&gt;&gt;</text><line style="stroke:#000000;stroke-width:1;" x1="13" x2="507.8896" y1="194.6719" y2="194.6719"/><ellipse cx="23" cy="208.3203" fill="#FFFFFF" rx="3" ry="3" style="stroke:#000000;stroke-width:1;"/><text fill="#000000" font-family="Verdana" font-size="14" lengthAdjust="spacing" textLength="472.8896" x="30" y="211.667">Libro_Details(Hashtable&lt;String, List&lt;Libro&gt;&gt;, List&lt;Valutazione&gt;):</text><ellipse cx="23" cy="224.6172" fill="#FFFFFF" rx="3" ry="3" style="stroke:#000000;stroke-width:1;"/><text fill="#000000" font-family="Verdana" font-size="14" lengthAdjust="spacing" textLength="161.2871" x="30" y="227.9639">getmContenuto(): float</text><ellipse cx="23" cy="240.9141" fill="#FFFFFF" rx="3" ry="3" style="stroke:#000000;stroke-width:1;"/><text fill="#000000" font-family="Verdana" font-size="14" lengthAdjust="spacing" textLength="183.4834" x="30" y="244.2607">getmGradevolezza(): float</text><ellipse cx="23" cy="257.2109" fill="#FFFFFF" rx="3" ry="3" style="stroke:#000000;stroke-width:1;"/><text fill="#000000" font-family="Verdana" font-size="14" lengthAdjust="spacing" textLength="160.9111" x="30" y="260.5576">getmOriginalita(): float</text><ellipse cx="23" cy="273.5078" fill="#FFFFFF" rx="3" ry="3" style="stroke:#000000;stroke-width:1;"/><text fill="#000000" font-family="Verdana" font-size="14" lengthAdjust="spacing" textLength="250.8447" x="30" y="276.8545">getValutazioni(): List&lt;Valutazione&gt;</text><ellipse cx="23" cy="289.8047" fill="#FFFFFF" rx="3" ry="3" style="stroke:#000000;stroke-width:1;"/><text fill="#000000" font-family="Verdana" font-size="14" lengthAdjust="spacing" textLength="118.9385" x="30" y="293.1514">getmStile(): float</text><ellipse cx="23" cy="306.1016" fill="#FFFFFF" rx="3" ry="3" style="stroke:#000000;stroke-width:1;"/><text fill="#000000" font-family="Verdana" font-size="14" lengthAdjust="spacing" textLength="325.8486" x="30" y="309.4482">getConsigli(): Hashtable&lt;String, List&lt;Libro&gt;&gt;</text><ellipse cx="23" cy="322.3984" fill="#FFFFFF" rx="3" ry="3" style="stroke:#000000;stroke-width:1;"/><text fill="#000000" font-family="Verdana" font-size="14" lengthAdjust="spacing" textLength="147.082" x="30" y="325.7451">getmEdizione(): float</text><ellipse cx="23" cy="338.6953" fill="#FFFFFF" rx="3" ry="3" style="stroke:#000000;stroke-width:1;"/><text fill="#000000" font-family="Verdana" font-size="14" lengthAdjust="spacing" textLength="130.0674" x="30" y="342.042">getmFinale(): float</text></g><!--SRC=[ZL3BJiD03BpdAyoj5V03KPLBoqj2ub3HAt8IarWuwsZNhKGG_quUXIGAGXmzunbxvi9AgWXgGNQHQGscaAgPLf2pfynONHJUsDNeiG9XH_PU4wYtKgCe4mm17Zdr-h8ZGvO07n70vHnRtMCe3LEXpTuyk-AgvODj-gKaEKy7bADXqrwaP1r3QtCDrPt7d4ugr3GOmwiesa3iZOMcI23FA0VoeNLuVjZ58EgAOVd9Sy4EXMrcSlgvoF7oXq5ws-bcXwgjEYDtD9sXDpdtkYcOgGjSIEl-TmDzPGNPQBrQZpu3DMrYoKuIBiWn57VSRq47axxJXNnx3j4H_upntSNopw7E4V_y0W00]--></g></svg>