<svg xmlns="http://www.w3.org/2000/svg" xmlns:xlink="http://www.w3.org/1999/xlink" contentStyleType="text/css" data-diagram-type="CLASS" height="444px" preserveAspectRatio="none" style="width:502px;height:444px;background:#FFFFFF;" version="1.1" viewBox="0 0 502 444" width="502px" zoomAndPan="magnify"><defs/><g><!--class Libro--><g class="entity" data-entity="Libro" data-source-line="5" data-uid="ent0002" id="entity_Libro"><rect fill="#FFFFFF" height="418.8281" rx="2.5" ry="2.5" style="stroke:#000000;stroke-width:1;" width="476.3066" x="12" y="12"/><ellipse cx="228.9546" cy="26" fill="#FFFFFF" rx="9" ry="9" style="stroke:#000000;stroke-width:1;"/><path d="M231.9233,31.6406 Q231.3452,31.9375 230.7046,32.0781 Q230.064,32.2344 229.3608,32.2344 Q226.8608,32.2344 225.5327,30.5938 Q224.2202,28.9375 224.2202,25.8125 Q224.2202,22.6875 225.5327,21.0313 Q226.8608,19.375 229.3608,19.375 Q230.064,19.375 230.7046,19.5313 Q231.3608,19.6875 231.9233,19.9844 L231.9233,22.7031 Q231.2983,22.125 230.7046,21.8594 Q230.1108,21.5781 229.4858,21.5781 Q228.1421,21.5781 227.4546,22.6563 Q226.7671,23.7188 226.7671,25.8125 Q226.7671,27.9063 227.4546,28.9844 Q228.1421,30.0469 229.4858,30.0469 Q230.1108,30.0469 230.7046,29.7813 Q231.2983,29.5 231.9233,28.9219 L231.9233,31.6406 Z " fill="#000000"/><text fill="#000000" font-family="Verdana" font-size="14" lengthAdjust="spacing" textLength="34.8975" x="246.4546" y="30.8467">Libro</text><line style="stroke:#000000;stroke-width:1;" x1="13" x2="487.3066" y1="40" y2="40"/><rect fill="none" height="6" style="stroke:#000000;stroke-width:1;" width="6" x="20" y="50.6484"/><text fill="#000000" font-family="Verdana" font-size="14" lengthAdjust="spacing" textLength="155.1279" x="30" y="56.9951">serialVersionUID: long</text><rect fill="none" height="6" style="stroke:#000000;stroke-width:1;" width="6" x="20" y="66.9453"/><text fill="#000000" font-family="Verdana" font-size="14" lengthAdjust="spacing" textLength="130.375" x="30" y="73.292">descrizione: String</text><rect fill="none" height="6" style="stroke:#000000;stroke-width:1;" width="6" x="20" y="83.2422"/><text fill="#000000" font-family="Verdana" font-size="14" lengthAdjust="spacing" textLength="40.1953" x="30" y="89.5889">id: int</text><rect fill="none" height="6" style="stroke:#000000;stroke-width:1;" width="6" x="20" y="99.5391"/><text fill="#000000" font-family="Verdana" font-size="14" lengthAdjust="spacing" textLength="100.7617" x="30" y="105.8857">editore: String</text><rect fill="none" height="6" style="stroke:#000000;stroke-width:1;" width="6" x="20" y="115.8359"/><text fill="#000000" font-family="Verdana" font-size="14" lengthAdjust="spacing" textLength="86.8369" x="30" y="122.1826">titolo: String</text><rect fill="none" height="6" style="stroke:#000000;stroke-width:1;" width="6" x="20" y="132.1328"/><text fill="#000000" font-family="Verdana" font-size="14" lengthAdjust="spacing" textLength="87.1377" x="30" y="138.4795">prezzo: float</text><rect fill="none" height="6" style="stroke:#000000;stroke-width:1;" width="6" x="20" y="148.4297"/><text fill="#000000" font-family="Verdana" font-size="14" lengthAdjust="spacing" textLength="176.4697" x="30" y="154.7764">annoPubblicazione: short</text><rect fill="none" height="6" style="stroke:#000000;stroke-width:1;" width="6" x="20" y="164.7266"/><text fill="#000000" font-family="Verdana" font-size="14" lengthAdjust="spacing" textLength="179.7373" x="30" y="171.0732">mesePubblicazione: short</text><rect fill="none" height="6" style="stroke:#000000;stroke-width:1;" width="6" x="20" y="181.0234"/><text fill="#000000" font-family="Verdana" font-size="14" lengthAdjust="spacing" textLength="96.8242" x="30" y="187.3701">autore: String</text><rect fill="none" height="6" style="stroke:#000000;stroke-width:1;" width="6" x="20" y="197.3203"/><text fill="#000000" font-family="Verdana" font-size="14" lengthAdjust="spacing" textLength="117.0039" x="30" y="203.667">categoria: String</text><line style="stroke:#000000;stroke-width:1;" x1="13" x2="487.3066" y1="210.9688" y2="210.9688"/><ellipse cx="23" cy="224.6172" fill="#FFFFFF" rx="3" ry="3" style="stroke:#000000;stroke-width:1;"/><text fill="#000000" font-family="Verdana" font-size="14" lengthAdjust="spacing" textLength="452.3066" x="30" y="227.9639">Libro(int, String, String, String, String, String, float, short, short):</text><ellipse cx="23" cy="240.9141" fill="#FFFFFF" rx="3" ry="3" style="stroke:#000000;stroke-width:1;"/><text fill="#000000" font-family="Verdana" font-size="14" lengthAdjust="spacing" textLength="167.7949" x="30" y="244.2607">equals(Object): boolean</text><ellipse cx="23" cy="257.2109" fill="#FFFFFF" rx="3" ry="3" style="stroke:#000000;stroke-width:1;"/><text fill="#000000" font-family="Verdana" font-size="14" lengthAdjust="spacing" textLength="166.1816" x="30" y="260.5576">getDescrizione(): String</text><ellipse cx="23" cy="273.5078" fill="#FFFFFF" rx="3" ry="3" style="stroke:#000000;stroke-width:1;"/><text fill="#000000" font-family="Verdana" font-size="14" lengthAdjust="spacing" textLength="107.8027" x="30" y="276.8545">hashCode(): int</text><ellipse cx="23" cy="289.8047" fill="#FFFFFF" rx="3" ry="3" style="stroke:#000000;stroke-width:1;"/><text fill="#000000" font-family="Verdana" font-size="14" lengthAdjust="spacing" textLength="131.7354" x="30" y="293.1514">getAutore(): String</text><ellipse cx="23" cy="306.1016" fill="#FFFFFF" rx="3" ry="3" style="stroke:#000000;stroke-width:1;"/><text fill="#000000" font-family="Verdana" font-size="14" lengthAdjust="spacing" textLength="217.8955" x="30" y="309.4482">getMesePubblicazione(): String</text><ellipse cx="23" cy="322.3984" fill="#FFFFFF" rx="3" ry="3" style="stroke:#000000;stroke-width:1;"/><text fill="#000000" font-family="Verdana" font-size="14" lengthAdjust="spacing" textLength="152.9951" x="30" y="325.7451">getCategoria(): String</text><ellipse cx="23" cy="338.6953" fill="#FFFFFF" rx="3" ry="3" style="stroke:#000000;stroke-width:1;"/><text fill="#000000" font-family="Verdana" font-size="14" lengthAdjust="spacing" textLength="74.3477" x="30" y="342.042">getId(): int</text><ellipse cx="23" cy="354.9922" fill="#FFFFFF" rx="3" ry="3" style="stroke:#000000;stroke-width:1;"/><text fill="#000000" font-family="Verdana" font-size="14" lengthAdjust="spacing" textLength="123.8125" x="30" y="358.3389">getTitolo(): String</text><ellipse cx="23" cy="371.2891" fill="#FFFFFF" rx="3" ry="3" style="stroke:#000000;stroke-width:1;"/><text fill="#000000" font-family="Verdana" font-size="14" lengthAdjust="spacing" textLength="134.9072" x="30" y="374.6357">getEditore(): String</text><ellipse cx="23" cy="387.5859" fill="#FFFFFF" rx="3" ry="3" style="stroke:#000000;stroke-width:1;"/><text fill="#000000" font-family="Verdana" font-size="14" lengthAdjust="spacing" textLength="211.3809" x="30" y="390.9326">getAnnoPubblicazione(): short</text><ellipse cx="23" cy="403.8828" fill="#FFFFFF" rx="3" ry="3" style="stroke:#000000;stroke-width:1;"/><text fill="#000000" font-family="Verdana" font-size="14" lengthAdjust="spacing" textLength="120.6064" x="30" y="407.2295">getPrezzo(): float</text><ellipse cx="23" cy="420.1797" fill="#FFFFFF" rx="3" ry="3" style="stroke:#000000;stroke-width:1;"/><text fill="#000000" font-family="Verdana" font-size="14" lengthAdjust="spacing" textLength="117.708" x="30" y="423.5264">toString(): String</text></g><!--SRC=[XLBBJiD03BpdAyojLU47SgjQ3fL0LE9ntoGcCMpMOTSz4CI_upgjQ18XJhkQcVMC9xcI1bk4pZiAcN07mb2m2BTGKSHIY4EMtYbqBheMF0MKpmw1epISPQLtAS4T5P7XAmDO3VS51Rc6HuaKwl_FLyzEvQdHeQTZcODEku64aPn_mPWqn_DkcuFdK1jLOIeZzOfZVXfbE5KvgBtTiIBXEEP58SyZg8lOzmfP44DS2Bm_58MdqfqiB9UHBIRyatI7cMFf16lMHIxG5U37mVcqU2ZUj6NTjs3sw89nDShsTxt5SlImSQdPS6NmiAWzM9lnHAlu_JJjNB8v1vnJksfYysJrpOMtGzLpOZsjyYWvzsMAlTL_XCyVOAM_uJ3bOjxt3m00]--></g></svg>